# xmcd
#
# Track frame offsets:
#	150
#	17635
#	31652
#	48720
#	65722
#	79707
#	95767
#	114832
#	132147
#	149852
#	167695
#	177775
#	195752
#	217220
#	235392
#	252937
#
# Disc length: 3531
#
# Revision: 1
# Processed by: cddbd v1.5.1PL0 Copyright (c) Steve Scherf et al.
# Submitted via: CDex 1.51
# Normalized: r0:DSETVAR1,TDELIM( - )
#
DISCID=e10dc910
DTITLE=Various Artist - The Winners - The Great British Country Music Awards
DYEAR=1995
DGENRE=Country
TTITLE0=Follow Your Dream - Daniel O'Donnell
TTITLE1=Light Years Away - West Virginia
TTITLE2=Before I Call It Love - Sarah Jory
TTITLE3=If Tomorrow Never Comes - Charley Pride
TTITLE4=Your Love Is Like A Flower - Down County Boys
TTITLE5=Fireside Dreaming - Charlie Landsborough
TTITLE6=Charlie (Live) - Raymond Froggatt
TTITLE7=Born To Run - Young Country
TTITLE8=What Colour Is The Wind - Charlie Landsborough
TTITLE9=Never Had It So Good - Sarah Jory
TTITLE10=Just Between You And Me - Charley Pride
TTITLE11=Going Nowhere Fast - Young Country
TTITLE12=Don't Let Me Cry Again (Live) - Raymond Froggatt
TTITLE13=Come And Sit By The River With Me - Down County Boys
TTITLE14=Blue Rendezvous - West Virginia
TTITLE15=You're The First Thing I Think Of - Daniel O'Donnell
EXTD=YEAR: 1995
EXTT0=
EXTT1=
EXTT2=
EXTT3=
EXTT4=
EXTT5=
EXTT6=
EXTT7=
EXTT8=
EXTT9=
EXTT10=
EXTT11=
EXTT12=
EXTT13=
EXTT14=
EXTT15=
PLAYORDER=
